<svg width="300" height="300" viewBox="0 0 300 300" fill="none" xmlns="http://www.w3.org/2000/svg">
<g clip-path="url(#clip0_3_2)">
<rect width="300" height="300" fill="url(#paint0_linear_3_2)"/>
<path d="M53.5284 21V-8.09091H59.679V3.91193H72.1648V-8.09091H78.3011V21H72.1648V8.98295H59.679V21H53.5284ZM58.5426 69H51.9517L61.9943 39.9091H69.9205L79.9489 69H73.358L66.071 46.5568H65.8438L58.5426 69ZM58.1307 57.5653H73.6989V62.3665H58.1307V57.5653ZM53.5284 117V87.9091H73.1307V92.9801H59.679V99.9119H72.1222V104.983H59.679V111.929H73.1875V117H53.5284ZM53.5284 165V135.909H59.679V148.736H60.0625L70.5312 135.909H77.9034L67.108 148.935L78.0312 165H70.6733L62.7045 153.04L59.679 156.733V165H53.5284ZM53.5284 213V183.909H59.679V196.736H60.0625L70.5312 183.909H77.9034L67.108 196.935L78.0312 213H70.6733L62.7045 201.04L59.679 204.733V213H53.5284ZM80.2614 246.455C80.2614 249.627 79.66 252.326 78.4574 254.551C77.2642 256.777 75.6354 258.476 73.571 259.651C71.5161 260.815 69.2055 261.398 66.6392 261.398C64.054 261.398 61.7339 260.811 59.679 259.636C57.6241 258.462 56 256.762 54.8068 254.537C53.6136 252.312 53.017 249.617 53.017 246.455C53.017 243.282 53.6136 240.583 54.8068 238.358C56 236.133 57.6241 234.437 59.679 233.273C61.7339 232.098 64.054 231.511 66.6392 231.511C69.2055 231.511 71.5161 232.098 73.571 233.273C75.6354 234.437 77.2642 236.133 78.4574 238.358C79.66 240.583 80.2614 243.282 80.2614 246.455ZM74.0256 246.455C74.0256 244.4 73.7178 242.667 73.1023 241.256C72.4962 239.845 71.6392 238.775 70.5312 238.045C69.4233 237.316 68.1259 236.952 66.6392 236.952C65.1525 236.952 63.8551 237.316 62.7472 238.045C61.6392 238.775 60.7775 239.845 60.1619 241.256C59.5559 242.667 59.2528 244.4 59.2528 246.455C59.2528 248.509 59.5559 250.242 60.1619 251.653C60.7775 253.064 61.6392 254.134 62.7472 254.864C63.8551 255.593 65.1525 255.957 66.6392 255.957C68.1259 255.957 69.4233 255.593 70.5312 254.864C71.6392 254.134 72.4962 253.064 73.1023 251.653C73.7178 250.242 74.0256 248.509 74.0256 246.455ZM53.5284 309V279.909H59.679V292.736H60.0625L70.5312 279.909H77.9034L67.108 292.935L78.0312 309H70.6733L62.7045 297.04L59.679 300.733V309H53.5284Z" fill="white"/>
</g>
<defs>
<linearGradient id="paint0_linear_3_2" x1="124.286" y1="49.7031" x2="295.527" y2="89.3378" gradientUnits="userSpaceOnUse">
<stop stop-color="#2E81FE"/>
<stop offset="1" stop-color="#959BB0"/>
</linearGradient>
<clipPath id="clip0_3_2">
<rect width="300" height="300" fill="white"/>
</clipPath>
</defs>
</svg>
